<svg width="25" height="25" viewBox="0 0 25 25" fill="none" xmlns="http://www.w3.org/2000/svg">
<path d="M0 12.5C0 5.59644 5.59644 0 12.5 0C19.4036 0 25 5.59644 25 12.5C25 19.4036 19.4036 25 12.5 25C5.59644 25 0 19.4036 0 12.5Z" fill="#1B651B"/>
<path fill-rule="evenodd" clip-rule="evenodd" d="M13.983 12.1429H10.2273V13.5H12.483C12.392 14.0824 11.8011 15.2077 10.2273 15.2077C8.86932 15.2077 7.76136 14.0881 7.76136 12.7083C7.76136 11.3286 8.86932 10.2089 10.2273 10.2089C11 10.2089 11.517 10.5369 11.8125 10.8196L12.892 9.78482C12.1989 9.14018 11.3011 8.75 10.2273 8.75C8.02841 8.75 6.25 10.5199 6.25 12.7083C6.25 14.8967 8.02841 16.6667 10.2273 16.6667C12.5227 16.6667 14.0455 15.0607 14.0455 12.7988C14.0455 12.5387 14.017 12.3408 13.983 12.1429ZM17.6136 13.2738H18.75V12.1429H17.6136V11.0119H16.4773V12.1429H15.3409V13.2738H16.4773V14.4048H17.6136V13.2738Z" fill="white"/>
</svg>
