<svg width="25" height="25" viewBox="0 0 25 25" fill="none" xmlns="http://www.w3.org/2000/svg">
<path d="M0 12.5C0 5.59644 5.59644 0 12.5 0C19.4036 0 25 5.59644 25 12.5C25 19.4036 19.4036 25 12.5 25C5.59644 25 0 19.4036 0 12.5Z" fill="#1B651B"/>
<path d="M18.888 9.41316C18.7347 8.82409 18.2829 8.36023 17.7092 8.2028C16.6695 7.91669 12.5 7.91669 12.5 7.91669C12.5 7.91669 8.33053 7.91669 7.29075 8.2028C6.71704 8.36023 6.26522 8.82409 6.11189 9.41316C5.83333 10.4808 5.83333 12.7084 5.83333 12.7084C5.83333 12.7084 5.83333 14.9359 6.11189 16.0036C6.26522 16.5926 6.71704 17.0565 7.29075 17.214C8.33053 17.5 12.5 17.5 12.5 17.5C12.5 17.5 16.6695 17.5 17.7092 17.214C18.2829 17.0565 18.7347 16.5926 18.888 16.0036C19.1667 14.9359 19.1667 12.7084 19.1667 12.7084C19.1667 12.7084 19.1667 10.4808 18.888 9.41316" fill="white"/>
<path d="M11.25 15V10.8333L14.5833 12.9167L11.25 15Z" fill="#1B651B"/>
</svg>
